<?xml version="1.0" encoding="UTF-8"?>
<svg version="1.1" xmlns="http://www.w3.org/2000/svg" width="120" height="120">
<path d="M0 0 C39.6 0 79.2 0 120 0 C120 39.6 120 79.2 120 120 C80.4 120 40.8 120 0 120 C0 80.4 0 40.8 0 0 Z " fill="#FFFFFF" transform="translate(0,0)"/>
<path d="M0 0 C3.0033329 2.83795113 5.30902617 5.77267051 7.625 9.1875 C13.12213137 16.8445843 20.15274331 24.32755383 29 28 C36.32914216 28.56378017 41.70363046 23.50917464 47 19 C52.84385924 13.30912137 57.4814384 6.76372189 62 0 C62.99 0.99 62.99 0.99 64 2 C63.65332275 2.60658447 63.30664551 3.21316895 62.94946289 3.83813477 C45.38232112 34.80497767 34.68829772 66.31287922 33 102 C32.01 102 31.02 102 30 102 C29.91363281 100.85789062 29.82726562 99.71578125 29.73828125 98.5390625 C28.01437106 77.88246029 24.57925606 57.36193667 17 38 C16.74524902 37.33919434 16.49049805 36.67838867 16.22802734 35.99755859 C12.51765752 26.53669711 7.80407497 17.85101079 2.46801758 9.20532227 C1.77228638 8.05761353 1.77228638 8.05761353 1.0625 6.88671875 C0.64097656 6.20826904 0.21945313 5.52981934 -0.21484375 4.83081055 C-1 3 -1 3 0 0 Z " fill="#000000" transform="translate(28,9)"/>
<path d="M0 0 C7.59 0 15.18 0 23 0 C23 0.66 23 1.32 23 2 C13.595 2.495 13.595 2.495 4 3 C12.80722501 17.34319502 22.16886243 30.8750243 32.65234375 44.0390625 C33.42707031 45.01617187 34.20179687 45.99328125 35 47 C35.62003906 47.72960937 36.24007812 48.45921875 36.87890625 49.2109375 C37.24886719 49.80132812 37.61882813 50.39171875 38 51 C37.67 51.99 37.34 52.98 37 54 C22.55451726 37.32445426 9.87849217 19.75698434 0 0 Z " fill="#000000" transform="translate(13,37)"/>
<path d="M0 0 C7.26 0 14.52 0 22 0 C21.17650133 4.11749335 20.78247605 5.77759538 18.69921875 9.08203125 C18.22282959 9.84104736 17.74644043 10.60006348 17.25561523 11.38208008 C16.73813721 12.18411865 16.22065918 12.98615723 15.6875 13.8125 C15.15133057 14.65127686 14.61516113 15.49005371 14.06274414 16.35424805 C9.20753347 23.85504877 3.98178591 31.02345948 -1.50341797 38.07275391 C-3.05773316 40.07434675 -4.59394472 42.08900698 -6.12890625 44.10546875 C-7.12677683 45.40428189 -8.12544324 46.70248408 -9.125 48 C-9.58656494 48.60626221 -10.04812988 49.21252441 -10.52368164 49.8371582 C-11.63534512 51.26279178 -12.81195333 52.63736582 -14 54 C-14.66 54 -15.32 54 -16 54 C-14.592871 49.80871203 -12.5999288 47.11579485 -9.6875 43.8125 C1.42346264 30.8449021 10.58135433 16.8268685 19 2 C12.73 2 6.46 2 0 2 C0 1.34 0 0.68 0 0 Z " fill="#000000" transform="translate(84,37)"/>
<path d="M0 0 C4.55555556 0.55555556 4.55555556 0.55555556 6 2 C6.125 5 6.125 5 6 8 C5 9 5 9 2 9.125 C-1 9 -1 9 -2 8 C-2.1875 5.0625 -2.1875 5.0625 -2 2 C-1.34 1.34 -0.68 0.68 0 0 Z " fill="#000000" transform="translate(57,14)"/>
</svg>
