<?xml version="1.0" encoding="UTF-8"?>
<svg version="1.1" xmlns="http://www.w3.org/2000/svg" width="360" height="129">
<path d="M0 0 C118.8 0 237.6 0 360 0 C360 42.57 360 85.14 360 129 C241.2 129 122.4 129 0 129 C0 86.43 0 43.86 0 0 Z " fill="#FFFFFF" transform="translate(0,0)"/>
<path d="M0 0 C3.14251668 2.95206112 5.75335415 5.96269646 8.3125 9.4375 C11.7010828 13.85739061 15.28056889 17.06130269 20 20 C20.94875 20.598125 21.8975 21.19625 22.875 21.8125 C28.39058268 22.14343496 31.99221335 18.48825875 36 15 C39.90164542 11.12507818 43.40367303 7.06927439 46.375 2.4375 C46.91125 1.633125 47.4475 0.82875 48 0 C48.66 0 49.32 0 50 0 C49.06820406 4.30086848 46.99414406 7.81106137 44.875 11.625 C33.2848582 33.17267384 28.03292824 55.69588774 26 80 C25.01 80 24.02 80 23 80 C22.91363281 78.81148438 22.82726562 77.62296875 22.73828125 76.3984375 C20.65636819 50.69350588 14.08193474 27.57918308 0.3359375 5.6171875 C-0.10492188 4.75351563 -0.54578125 3.88984375 -1 3 C-0.67 2.01 -0.34 1.02 0 0 Z " fill="#000000" transform="translate(155,9)"/>
<path d="M0 0 C2.36497439 1.86708505 3.66030715 3.32061431 5 6 C5.37103568 9.93297819 5.31089131 12.36470037 3.5625 15.9375 C0.29952023 18.56380079 -1.77075324 18.67645366 -5.87109375 18.40625 C-8 18 -8 18 -10.5625 16.5625 C-12.71988642 12.71672421 -12.87209775 9.29928892 -12 5 C-8.67935135 0.06933988 -5.83352544 -0.95457689 0 0 Z " fill="#000000" transform="translate(310,99)"/>
<path d="M0 0 C2.36497439 1.86708505 3.66030715 3.32061431 5 6 C4.984375 8.05859375 4.984375 8.05859375 4.75 10.4375 C4.68296875 11.21996094 4.6159375 12.00242187 4.546875 12.80859375 C3.88296545 15.46897416 3.23922191 16.42461821 1 18 C-1.375 18.43359375 -1.375 18.43359375 -4 18.4375 C-4.86625 18.45683594 -5.7325 18.47617188 -6.625 18.49609375 C-9 18 -9 18 -10.78125 16.28515625 C-12.9013019 12.31005894 -12.76294279 8.37420534 -12 4 C-8.61484823 -0.30837498 -5.30297138 -0.77134129 0 0 Z " fill="#000000" transform="translate(228,99)"/>
<path d="M0 0 C2.35546875 0.15234375 2.35546875 0.15234375 5 1 C6.91665101 4.52026733 7.80496831 8.14934233 9 12 C10.65 8.04 12.3 4.08 14 0 C15.32 0 16.64 0 18 0 C18.99 5.61 19.98 11.22 21 17 C19.68 17.33 18.36 17.66 17 18 C16.34 14.7 15.68 11.4 15 8 C13.68 11.3 12.36 14.6 11 18 C9.68 18 8.36 18 7 18 C5.68 14.37 4.36 10.74 3 7 C2.34 10.63 1.68 14.26 1 18 C0.01 18 -0.98 18 -2 18 C-1.85805236 15.93722893 -1.71127784 13.87478969 -1.5625 11.8125 C-1.48128906 10.66394531 -1.40007812 9.51539062 -1.31640625 8.33203125 C-1.04596188 5.48401829 -0.62478253 2.78789518 0 0 Z " fill="#000000" transform="translate(84,99)"/>
<path d="M0 0 C2.76771273 0.04472067 4.14021868 0.22754137 6.6875 1.4375 C8.1875 3.25 8.1875 3.25 8.625 5.75 C8.1875 8.25 8.1875 8.25 5.1875 11.25 C7.6625 14.715 7.6625 14.715 10.1875 18.25 C6.57489215 17.94894935 5.44240423 17.54131912 3 14.75 C2.401875 13.925 1.80375 13.1 1.1875 12.25 C0.5275 11.92 -0.1325 11.59 -0.8125 11.25 C-0.8125 13.56 -0.8125 15.87 -0.8125 18.25 C-2.1325 18.25 -3.4525 18.25 -4.8125 18.25 C-4.83934312 15.43743719 -4.85926188 12.62512759 -4.875 9.8125 C-4.88337891 9.01005859 -4.89175781 8.20761719 -4.90039062 7.38085938 C-4.9090143 5.33704779 -4.8647815 3.29316098 -4.8125 1.25 C-3.8125 0.25 -3.8125 0.25 0 0 Z " fill="#000000" transform="translate(29.8125,98.75)"/>
<path d="M0 0 C5 1 5 1 7.01953125 3.50390625 C7.61121094 4.51324219 8.20289063 5.52257812 8.8125 6.5625 C9.41707031 7.57441406 10.02164062 8.58632812 10.64453125 9.62890625 C11.09183594 10.41136719 11.53914063 11.19382812 12 12 C12.33 8.04 12.66 4.08 13 0 C13.99 0 14.98 0 16 0 C16 5.94 16 11.88 16 18 C11 17 11 17 8.98046875 14.71484375 C8.38878906 13.79832031 7.79710937 12.88179687 7.1875 11.9375 C6.58292969 11.01839844 5.97835938 10.09929687 5.35546875 9.15234375 C4.90816406 8.44207031 4.46085937 7.73179688 4 7 C3.67 10.63 3.34 14.26 3 18 C2.01 18 1.02 18 0 18 C0 12.06 0 6.12 0 0 Z " fill="#000000" transform="translate(319,99)"/>
<path d="M0 0 C1.32 0.33 2.64 0.66 4 1 C4.33 5.29 4.66 9.58 5 14 C6.65 14.33 8.3 14.66 10 15 C11.87824891 13.12175109 11.39102397 9.96064724 11.5625 7.4375 C11.64628906 6.23996094 11.73007813 5.04242188 11.81640625 3.80859375 C11.87699219 2.88175781 11.93757813 1.95492187 12 1 C13.32 0.67 14.64 0.34 16 0 C16.08119503 2.24940295 16.13927819 4.49964871 16.1875 6.75 C16.23970703 8.62945312 16.23970703 8.62945312 16.29296875 10.546875 C15.9844702 14.18304456 15.72852128 15.60884469 13 18 C10.625 18.53125 10.625 18.53125 8 18.5 C7.13375 18.5103125 6.2675 18.520625 5.375 18.53125 C3 18 3 18 1.19921875 16.421875 C-0.4498166 13.0915756 -0.29014136 10.44508883 -0.1875 6.75 C-0.16042969 5.48671875 -0.13335937 4.2234375 -0.10546875 2.921875 C-0.07066406 1.95765625 -0.03585938 0.9934375 0 0 Z " fill="#000000" transform="translate(62,99)"/>
<path d="M0 0 C6.27 0 12.54 0 19 0 C14.57631665 9.54584301 9.32361219 17.64117671 3 26 C2.27611084 26.96631348 2.27611084 26.96631348 1.53759766 27.95214844 C0.0779179 29.89359442 -1.39525863 31.82381294 -2.875 33.75 C-3.32705811 34.3466748 -3.77911621 34.94334961 -4.24487305 35.55810547 C-6.54920101 38.50712985 -8.42945245 40.70463856 -12 42 C-10.33791798 38.13425868 -7.76264264 35.10252636 -5.125 31.875 C-0.59722917 26.2311165 3.55858048 20.40105171 7.5625 14.375 C8.07474121 13.60526855 8.58698242 12.83553711 9.11474609 12.04248047 C11.29187134 8.7332208 13.2217441 5.55651179 15 2 C10.38 2 5.76 2 1 2 C0.67 1.34 0.34 0.68 0 0 Z " fill="#000000" transform="translate(198,31)"/>
<path d="M0 0 C6.27 0 12.54 0 19 0 C18.67 0.66 18.34 1.32 18 2 C13.38 2 8.76 2 4 2 C11.20735718 14.97324292 19.79095858 26.64649964 29.41796875 37.92578125 C31 40 31 40 31 42 C26.55965761 40.43220138 24.16886219 36.89302295 21.375 33.3125 C20.85156006 32.64839111 20.32812012 31.98428223 19.78881836 31.30004883 C12.13831419 21.46567136 5.2319135 11.33581258 0 0 Z " fill="#000000" transform="translate(143,31)"/>
<path d="M0 0 C1.32 0 2.64 0 4 0 C5.17112946 2.62309099 6.33705964 5.24828142 7.5 7.875 C7.83386719 8.62136719 8.16773438 9.36773437 8.51171875 10.13671875 C8.98544922 11.20986328 8.98544922 11.20986328 9.46875 12.3046875 C9.90864258 13.2944458 9.90864258 13.2944458 10.35742188 14.30419922 C11 16 11 16 11 18 C9.68 17.67 8.36 17.34 7 17 C6.67 15.35 6.34 13.7 6 12 C3.69 12.33 1.38 12.66 -1 13 C-1.66 14.65 -2.32 16.3 -3 18 C-4.32 17.67 -5.64 17.34 -7 17 C-4.69 11.39 -2.38 5.78 0 0 Z " fill="#171717" transform="translate(48,99)"/>
<path d="M0 0 C1.87988281 0.26147461 1.87988281 0.26147461 4 1 C5.09667969 2.67407227 5.09667969 2.67407227 5.921875 4.81640625 C6.22480469 5.58017578 6.52773437 6.34394531 6.83984375 7.13085938 C7.14019531 7.93330078 7.44054687 8.73574219 7.75 9.5625 C8.22373047 10.77196289 8.22373047 10.77196289 8.70703125 12.00585938 C9.48523782 13.99853983 10.24444266 15.99862199 11 18 C9.35 17.67 7.7 17.34 6 17 C5.67 15.35 5.34 13.7 5 12 C2.69 12 0.38 12 -2 12 C-2.66 13.98 -3.32 15.96 -4 18 C-4.99 18 -5.98 18 -7 18 C-5.26375242 11.5811453 -3.14819255 5.86215164 0 0 Z " fill="#161616" transform="translate(114,99)"/>
<path d="M0 0 C3.63 0 7.26 0 11 0 C11.33 0.99 11.66 1.98 12 3 C9.36 3 6.72 3 4 3 C4 4.32 4 5.64 4 7 C5.65 7 7.3 7 9 7 C9 7.99 9 8.98 9 10 C7.35 10 5.7 10 4 10 C4 11.65 4 13.3 4 15 C6.64 15 9.28 15 12 15 C12 15.99 12 16.98 12 18 C8.04 18 4.08 18 0 18 C0 12.06 0 6.12 0 0 Z " fill="#000000" transform="translate(180,99)"/>
<path d="M0 0 C3.375 0.375 3.375 0.375 5.375 2.375 C5.045 3.035 4.715 3.695 4.375 4.375 C2.065 4.375 -0.245 4.375 -2.625 4.375 C-2.625 5.035 -2.625 5.695 -2.625 6.375 C-1.51125 6.82875 -0.3975 7.2825 0.75 7.75 C4.375 9.375 4.375 9.375 6.375 11.375 C6.125 14.4375 6.125 14.4375 5.375 17.375 C2.85024538 18.63737731 1.06299534 18.47356404 -1.75 18.4375 C-2.66007812 18.42847656 -3.57015625 18.41945313 -4.5078125 18.41015625 C-5.55582031 18.39275391 -5.55582031 18.39275391 -6.625 18.375 C-6.625 17.385 -6.625 16.395 -6.625 15.375 C-3.655 15.375 -0.685 15.375 2.375 15.375 C2.045 14.385 1.715 13.395 1.375 12.375 C0.240625 11.92125 -0.89375 11.4675 -2.0625 11 C-5.625 9.375 -5.625 9.375 -7.0625 6.6875 C-7.248125 5.924375 -7.43375 5.16125 -7.625 4.375 C-5.13890492 1.19279829 -4.10803391 0.42496902 0 0 Z " fill="#000000" transform="translate(346.625,98.625)"/>
<path d="M0 0 C0.99 0 1.98 0 3 0 C3.33 4.62 3.66 9.24 4 14 C6.31 14.33 8.62 14.66 11 15 C11.33 10.05 11.66 5.1 12 0 C12.99 0 13.98 0 15 0 C15.0809723 2.43816585 15.14046972 4.87364384 15.1875 7.3125 C15.22520508 8.34793945 15.22520508 8.34793945 15.26367188 9.40429688 C15.33700102 14.4640079 15.33700102 14.4640079 13.76953125 16.95703125 C11.54405231 18.26873738 10.07608192 18.40076082 7.5 18.375 C6.7265625 18.38273437 5.953125 18.39046875 5.15625 18.3984375 C3 18 3 18 1.23046875 16.95703125 C-0.6834709 13.91295581 -0.31392362 10.78428723 -0.1875 7.3125 C-0.17396484 6.61060547 -0.16042969 5.90871094 -0.14648438 5.18554688 C-0.11120182 3.45670171 -0.05739583 1.72825235 0 0 Z " fill="#000000" transform="translate(252,99)"/>
<path d="M0 0 C1.32 0 2.64 0 4 0 C5.65 3.96 7.3 7.92 9 12 C10.65 8.04 12.3 4.08 14 0 C14.99 0 15.98 0 17 0 C16.33164705 3.96605048 15.17334004 7.51469934 13.6875 11.25 C13.27886719 12.30703125 12.87023437 13.3640625 12.44921875 14.453125 C11 17 11 17 8.83203125 17.859375 C8.22746094 17.90578125 7.62289062 17.9521875 7 18 C6.01706733 15.75157909 5.03855534 13.50140453 4.0625 11.25 C3.78470703 10.61578125 3.50691406 9.9815625 3.22070312 9.328125 C1.89279106 6.25632842 0.65633833 3.28999974 0 0 Z " fill="#000000" transform="translate(195,99)"/>
<path d="M0 0 C2.51391287 2.84910126 3.02430045 4.38033863 2.875 8.1875 C2 11 2 11 -1 13 C-3.5625 12.8125 -3.5625 12.8125 -6 12 C-8.31282587 8.53076119 -8.42478586 7.07794425 -8 3 C-5.93039799 -0.26779265 -3.72826801 -0.7456536 0 0 Z " fill="#FFFFFF" transform="translate(309,102)"/>
<path d="M0 0 C2.46324069 3.69486103 2.38991688 5.63293092 2 10 C0.8125 12 0.8125 12 -1 13 C-4.34192692 12.75546876 -5.60543557 12.39456443 -8 10 C-8.55416667 3.90416667 -8.55416667 3.90416667 -6.8125 1.0625 C-4.35526759 -0.37794659 -2.79836832 -0.4305182 0 0 Z " fill="#FFFFFF" transform="translate(227,102)"/>
<path d="M0 0 C0.66 0.33 1.32 0.66 2 1 C1.67 1.99 1.34 2.98 1 4 C-1.31 4 -3.62 4 -6 4 C-7.95031608 8.94749352 -7.95031608 8.94749352 -7 14 C-3.94152152 14.54372951 -1.11227195 15 2 15 C2 15.99 2 16.98 2 18 C-7.01470128 18.77416328 -7.01470128 18.77416328 -10.625 15.9375 C-12.33517367 12.28394716 -12.49959513 9.99676103 -12 6 C-9.05150625 -0.16503239 -6.61509808 -0.2362535 0 0 Z " fill="#000000" transform="translate(165,99)"/>
<path d="M0 0 C4.95 0 9.9 0 15 0 C15 0.99 15 1.98 15 3 C13.02 3 11.04 3 9 3 C9 7.95 9 12.9 9 18 C8.01 18 7.02 18 6 18 C6 13.05 6 8.1 6 3 C4.02 3 2.04 3 0 3 C0 2.01 0 1.02 0 0 Z " fill="#000000" transform="translate(271,99)"/>
<path d="M0 0 C4.95 0 9.9 0 15 0 C15 0.99 15 1.98 15 3 C13.02 3 11.04 3 9 3 C9 7.95 9 12.9 9 18 C8.01 18 7.02 18 6 18 C6 13.05 6 8.1 6 3 C4.02 3 2.04 3 0 3 C0 2.01 0 1.02 0 0 Z " fill="#000000" transform="translate(126,99)"/>
<path d="M0 0 C4.95 0 9.9 0 15 0 C15 0.99 15 1.98 15 3 C13.02 3 11.04 3 9 3 C9 7.95 9 12.9 9 18 C8.01 18 7.02 18 6 18 C6 13.05 6 8.1 6 3 C4.02 3 2.04 3 0 3 C0 2.01 0 1.02 0 0 Z " fill="#000000" transform="translate(7,99)"/>
<path d="M0 0 C0.99 0 1.98 0 3 0 C3 4.95 3 9.9 3 15 C5.64 15 8.28 15 11 15 C11 15.99 11 16.98 11 18 C7.37 18 3.74 18 0 18 C0 12.06 0 6.12 0 0 Z " fill="#000000" transform="translate(237,99)"/>
<path d="M0 0 C1.32 0 2.64 0 4 0 C4 5.94 4 11.88 4 18 C2.68 18 1.36 18 0 18 C0 12.06 0 6.12 0 0 Z " fill="#000000" transform="translate(145,99)"/>
<path d="M0 0 C0.99 0 1.98 0 3 0 C3 5.94 3 11.88 3 18 C2.01 18 1.02 18 0 18 C0 12.06 0 6.12 0 0 Z " fill="#000000" transform="translate(290,99)"/>
<path d="M0 0 C1.2065625 0.0309375 1.2065625 0.0309375 2.4375 0.0625 C3.5625 4.8125 3.5625 4.8125 2.4375 7.0625 C0.77138095 7.105221 -0.89632885 7.10313832 -2.5625 7.0625 C-3.5625 6.0625 -3.5625 6.0625 -3.6875 3.5625 C-3.51717518 0.15600356 -3.41884482 0.08338646 0 0 Z " fill="#000000" transform="translate(179.5625,12.9375)"/>
<path d="M0 0 C1.65 0 3.3 0 5 0 C5.33 1.32 5.66 2.64 6 4 C4.02 4.33 2.04 4.66 0 5 C0 3.35 0 1.7 0 0 Z " fill="#FFFFFF" transform="translate(29,102)"/>
</svg>
